<svg width="400" height="400" viewBox="0 0 400 400" fill="none" xmlns="http://www.w3.org/2000/svg">
  <!-- Background -->
  <rect width="400" height="400" fill="#F5F1E8"/>

  <!-- Icon -->
  <g transform="translate(100, 100)">
    <!-- Gift box icon -->
    <path d="M180 60H20C11.7157 60 5 66.7157 5 75V95C5 103.284 11.7157 110 20 110H180C188.284 110 195 103.284 195 95V75C195 66.7157 188.284 60 180 60Z" fill="#B8935E" fill-opacity="0.2"/>
    <path d="M180 110H20C11.7157 110 5 116.716 5 125V185C5 193.284 11.7157 200 20 200H180C188.284 200 195 193.284 195 185V125C195 116.716 188.284 110 180 110Z" fill="#B8935E" fill-opacity="0.3"/>
    <path d="M100 60V200M100 60C100 51.7157 93.2843 45 85 45C76.7157 45 70 51.7157 70 60M100 60C100 51.7157 106.716 45 115 45C123.284 45 130 51.7157 130 60" stroke="#B8935E" stroke-width="4" stroke-linecap="round"/>
  </g>

  <!-- Text -->
  <text x="200" y="320" text-anchor="middle" fill="#B8935E" font-family="Arial, sans-serif" font-size="16" font-weight="500">
    Image non disponible
  </text>
</svg>
